<svg xmlns="http://www.w3.org/2000/svg" xmlns:xlink="http://www.w3.org/1999/xlink" width="203" height="116" viewBox="0 0 203 116">
    <defs>
        <path id="a" d="M.084.89H92V52H.084z"/>
        <path id="c" d="M0 .975h78.054v51.109H0z"/>
    </defs>
    <g fill="none" fill-rule="evenodd">
        <g transform="translate(111 63.333)">
            <mask id="b" fill="#fff">
                <use xlink:href="#a"/>
            </mask>
            <path fill="#E9F3E5" d="M86.819 42.417h-3.05c-2.861 0-5.18-1.131-5.18-3.993 0-2.861 2.319-3.993 5.18-3.993h.433c2.862 0 5.18-2.728 5.18-5.59 0-2.861-2.318-5.59-5.18-5.59H70.685c-2.862 0-5.181-2.728-5.181-5.591 0-2.86 2.319-5.59 5.18-5.59h1.087c2.862 0 5.182-2.727 5.182-5.59 0-2.861-2.32-5.59-5.182-5.59H41.245c-2.862 0-5.181 2.729-5.181 5.59 0 2.863 2.319 5.59 5.18 5.59h3.704c2.862 0 5.182 2.73 5.182 5.59 0 2.863-2.32 5.591-5.182 5.591H.084a28.89 28.89 0 0 1 .344 3.75 3.4 3.4 0 0 1 2.885-.368c1.288.405 2.008 1.598 2.81 2.576.526.64.992 1.218 1.475 1.749 3.05-1.856 7.597.641 8.17 3.473h2.579c-.307 0-.607-.631-.9-.822-.065-.015-.126-.041-.192-.055.064-.014.128.013.193.055 1.69.423 3.046 1.432 3.608 2.944l.04.008c1.068.18 1.982.139 2.957.704 1.82 1.05 2.764 2.946 2.352 4.938-.164.797-.877 1.41-1.622 1.651-.382.581-1.023.977-1.912.932-.447-.022-.901-.043-1.358-.063-.19.049-.39.085-.611.09-2.25.051-4.557.131-6.838.012-.566.706-.898 1.61-.898 2.69 0 2.862 2.319 4.485 5.18 4.485h30.528c2.86 0 5.18-1.929 5.18-4.792 0-2.86-2.32-4.791-5.18-4.791h-6.321c-2.862 0-5.181-2.128-5.181-4.99 0-2.861 2.319-5.112 5.18-5.112 0 0 26.31.087 26.059.125 2.499.379 4.416 2.6 4.416 5.201 0 2.601-1.917 4.806-4.416 5.184.25.038.505.072.766.072-2.863 0-5.181 1.691-5.181 4.551 0 2.864 2.318 4.552 5.18 4.552H86.82C89.68 52 92 50.071 92 47.208c0-2.86-2.32-4.791-5.182-4.791" mask="url(#b)"/>
        </g>
        <g transform="translate(0 15.333)">
            <mask id="d" fill="#fff">
                <use xlink:href="#c"/>
            </mask>
            <path fill="#E9F3E5" d="M64.577 26.165c1.74-2.664 3.982-4.423 6.56-6.21.21-.145.395-.269.565-.385a5.259 5.259 0 0 1-1.045-3.125 5.25 5.25 0 0 1 3.82-5.039l.029-.125a4.894 4.894 0 0 0-.853-.084c.306 0 .6-.038.89-.088.637-2.875 1.608-5.624 3.51-7.71a5.164 5.164 0 0 0-4.4-2.424H43.127c-2.862 0-5.182 2.727-5.182 5.589 0 2.862 2.32 5.591 5.182 5.591h6.32c2.862 0 5.182 1.89 5.182 4.752 0 2.861-2.32 4.993-5.182 4.993 0 0-26.308-.146-26.058-.184-2.498-.379-4.416-2.63-4.416-5.23 0-2.601 1.918-4.821 4.416-5.2-.25-.038-.504-.079-.765-.079 2.862 0 5.18-2.255 5.18-5.116 0-2.863-2.318-5.116-5.18-5.116H5.18C2.32.975 0 3.702 0 6.564c0 2.862 2.32 5.591 5.18 5.591h3.05c2.863 0 5.182 1.929 5.182 4.791s-2.32 4.792-5.182 4.792h-.431c-2.863 0-5.182 2.728-5.182 5.59 0 2.861 2.319 5.59 5.182 5.59h13.516c2.863 0 5.18 1.131 5.18 3.993 0 2.861-2.317 3.993-5.18 3.993h-1.086c-2.862 0-5.181 2.728-5.181 5.59 0 2.861 2.319 5.59 5.18 5.59h30.527c2.863 0 5.182-2.729 5.182-5.59 0-2.862-2.32-5.59-5.182-5.59h-3.702c-2.863 0-5.182-1.132-5.182-3.993 0-2.862 2.319-3.993 5.182-3.993h16.92c-.766-2.254-.631-4.862.604-6.753" mask="url(#d)"/>
        </g>
        <path fill="#FBF8C7" d="M82.94 64.408c-9.615 0-17.411-7.796-17.411-17.412 0-4.92 2.049-9.354 5.329-12.52-6.21 2.661-10.56 8.825-10.56 16.007 0 9.616 7.796 17.412 17.412 17.412 4.697 0 8.95-1.869 12.083-4.89a17.355 17.355 0 0 1-6.852 1.403"/>
        <path fill="#FBF8C7" d="M104.638 12.668c5.982 0 8.378-1.075 13.11 1.865.604.376 1.218.158.917-.341-4.706-7.804-13.251-13.032-23.03-13.032-14.855 0-26.897 12.043-26.897 26.899 0 2.389-.028 4.827.913 6.904.254.561.876.959 1.058.005 2.733-14.316 18.818-22.3 33.929-22.3M112.775 78.076l9.556-8.229a2.17 2.17 0 0 0-.375-3.534s-9.012 8.355-11.724 9.564l-.145 1.162c1.438 1.986.84 2.65 2.688 1.037"/>
        <path fill="#FBF8C7" d="M109.703 60.183h-.302a1.792 1.792 0 0 0-1.784 1.937l2.76 45.008c0 1.062 4.142-.155 4.142-.155"/>
        <path fill="#42B549" d="M167.433 14.993a.738.738 0 0 0-.739.738v4.667a.74.74 0 1 0 1.477 0v-4.667a.737.737 0 0 0-.738-.738M167.433 25.246a.738.738 0 0 0-.739.738v4.667a.74.74 0 1 0 1.477 0v-4.667a.737.737 0 0 0-.738-.738M163.403 22.453h-3.431a.738.738 0 0 0 0 1.478h3.43a.738.738 0 0 0 0-1.478M174.893 22.453h-3.43a.74.74 0 0 0 0 1.478h3.43a.74.74 0 0 0 0-1.478"/>
        <path fill="#FBF8C7" d="M164.141 77.673c.467 0 .92-.074 1.355-.202.982-.781 1.624-1.972 1.624-3.324a4.265 4.265 0 0 0-4.265-4.265c-1.338 0-2.517.628-3.298 1.59a4.725 4.725 0 0 0-.228 1.389 4.817 4.817 0 0 0 4.812 4.812"/>
        <path fill="#42B549" d="M164.141 66.568a6.298 6.298 0 0 0-6.29 6.292 6.296 6.296 0 0 0 6.29 6.29 6.23 6.23 0 0 0 3.725-1.22.74.74 0 0 0 .156-1.034.736.736 0 0 0-1.033-.155c-.455.335-.96.574-1.493.73a4.788 4.788 0 0 1-1.355.201 4.817 4.817 0 0 1-4.812-4.812c0-.485.093-.945.228-1.388.6-1.974 2.416-3.425 4.584-3.425a4.818 4.818 0 0 1 4.812 4.813.74.74 0 0 0 1.478 0 6.298 6.298 0 0 0-6.29-6.292"/>
        <path fill="#FBF8C7" d="M149.503 7.201a.724.724 0 0 1-.324.595 2.937 2.937 0 0 0 2.537 1.467 2.952 2.952 0 0 0 2.952-2.952c0-.719-.27-1.37-.697-1.882a3.062 3.062 0 0 0-1.365-.33 3.106 3.106 0 0 0-3.103 3.102"/>
        <path fill="#42B549" d="M152.606 2.621a4.586 4.586 0 0 0-4.58 4.58c0 .408.33.74.738.74.157 0 .296-.06.415-.145a.722.722 0 0 0 .323-.595 3.106 3.106 0 0 1 3.103-3.102c.493 0 .953.125 1.367.33a3.094 3.094 0 0 1 1.737 2.772 3.108 3.108 0 0 1-3.103 3.104.74.74 0 0 0 0 1.478 4.587 4.587 0 0 0 4.582-4.582 4.586 4.586 0 0 0-4.582-4.58"/>
        <path fill="#FBF8C7" d="M36.992 97.62a3.113 3.113 0 0 0-3.67-2.405.723.723 0 0 1-.65-.196 2.943 2.943 0 0 0-.918 2.781 2.952 2.952 0 0 0 3.49 2.29 2.923 2.923 0 0 0 1.702-1.066c.116-.447.146-.923.046-1.404"/>
        <path fill="#42B549" d="M33.02 93.769a.737.737 0 0 0-.572.872.732.732 0 0 0 .223.378c.169.16.401.247.651.195 1.67-.341 3.32.73 3.67 2.407.1.48.07.957-.046 1.404a3.096 3.096 0 0 1-2.361 2.265 3.106 3.106 0 0 1-3.669-2.407.732.732 0 0 0-.875-.572.738.738 0 0 0-.573.873 4.59 4.59 0 0 0 5.417 3.553 4.586 4.586 0 0 0 3.553-5.417 4.582 4.582 0 0 0-5.418-3.551M49.627 77.483a.738.738 0 0 0-.74.738v2.253a.739.739 0 1 0 1.478 0v-2.253a.738.738 0 0 0-.739-.738M49.627 87.78a.739.739 0 0 0-.74.738v2.227c0 .408.33.738.74.738.407 0 .738-.33.738-.738v-2.227a.74.74 0 0 0-.739-.739M45.91 83.455h-2.254a.738.738 0 1 0 0 1.478h2.253a.74.74 0 0 0 0-1.478M55.598 83.455h-2.252a.739.739 0 1 0 0 1.478h2.252a.74.74 0 0 0 0-1.478M54.471 9.156a.47.47 0 0 0-.47.47v1.434a.47.47 0 1 0 .94 0V9.626a.47.47 0 0 0-.47-.47M54.471 15.706a.47.47 0 0 0-.47.47v1.416a.47.47 0 1 0 .94 0v-1.416a.47.47 0 0 0-.47-.47M52.106 12.954h-1.434a.47.47 0 0 0 0 .94h1.434a.47.47 0 1 0 0-.94M58.27 12.954h-1.434a.47.47 0 0 0 0 .94h1.434a.47.47 0 1 0 0-.94M141.316 75.393a.652.652 0 0 0-.652.652v1.99a.652.652 0 0 0 1.304 0v-1.99a.651.651 0 0 0-.652-.652M141.316 84.483a.652.652 0 0 0-.652.652v1.966a.652.652 0 1 0 1.304 0v-1.966a.651.651 0 0 0-.652-.652M138.035 80.665h-1.99a.652.652 0 1 0 0 1.305h1.99a.652.652 0 0 0 0-1.305M146.589 80.665h-1.99a.652.652 0 1 0 0 1.305h1.99a.652.652 0 0 0 0-1.305"/>
        <path fill="#FBF8C7" d="M67.522 99.925s-6.807-1.338-5.495 7.048c0 0-2.764-.8-2.89-2.053-.127-1.254-.248-3.943.454-4.305.702-.36 4.154-2.423 5.088-2.361.934.064 1.983.619 2.843 1.67M83.26 93.186s-11.056-7.084-15.55 6.43c0 0-1.189-2.56-.413-4.522.775-1.962 4.604-6.235 5.918-6.17 1.314.067 6.001-.39 7.334.5 1.332.89 2.246 1.473 2.711 3.762"/>
        <path fill="#42B549" d="M61.34 107.928a.796.796 0 0 1-.376-.094c-1.905-1.015-3.042-2.771-3.042-4.698 0-3.048 2.89-5.526 6.441-5.526.714 0 1.418.1 2.085.297v-.102c0-1.481.297-2.907.884-4.244a.798.798 0 1 1 1.463.642 8.892 8.892 0 0 0-.75 3.602c0 .408.027.812.08 1.207a.797.797 0 0 1-1.16.812 5.658 5.658 0 0 0-2.602-.617c-2.67 0-4.844 1.763-4.844 3.929 0 1.326.821 2.555 2.197 3.288a.799.799 0 0 1-.377 1.504M69.443 92.44a.798.798 0 0 1-.615-1.308c.288-.35.6-.679.932-.986a.798.798 0 1 1 1.084 1.173 8.423 8.423 0 0 0-.784.83.802.802 0 0 1-.617.29M103.64 107.928a.8.8 0 0 1-.562-1.367c.741-.735 1.133-1.61 1.133-2.532 0-2.29-2.43-4.153-5.419-4.153-1.283 0-2.53.354-3.51.995a.795.795 0 0 1-.826.032.803.803 0 0 1-.41-.718c.001-3.278-2.51-5.88-5.596-5.88a5.44 5.44 0 0 0-3.099.97.783.783 0 0 1-.704.1.798.798 0 0 1-.505-.496c-1.18-3.43-4.316-5.731-7.806-5.731a7.9 7.9 0 0 0-3.572.844.798.798 0 1 1-.716-1.428 9.475 9.475 0 0 1 4.288-1.013c3.855 0 7.346 2.337 8.958 5.905a7.01 7.01 0 0 1 3.156-.747c3.578 0 6.553 2.697 7.103 6.217a8.352 8.352 0 0 1 3.24-.647c3.868 0 7.015 2.58 7.015 5.75 0 1.339-.57 2.64-1.606 3.668a.798.798 0 0 1-.562.23M136.77 107.928a.8.8 0 0 1-.562-1.367c.741-.735 1.133-1.61 1.133-2.532 0-2.29-2.43-4.153-5.419-4.153-1.284 0-2.53.354-3.51.995a.787.787 0 0 1-.817.035.796.796 0 0 1-.419-.703c.001-3.296-2.51-5.897-5.595-5.897a5.44 5.44 0 0 0-3.1.969.784.784 0 0 1-.704.1.798.798 0 0 1-.505-.496c-.754-2.193-2.354-4.003-4.391-4.965a.8.8 0 0 1 .683-1.444c2.136 1.01 3.868 2.798 4.86 4.986a7.01 7.01 0 0 1 3.157-.747c3.577 0 6.552 2.697 7.102 6.217a8.352 8.352 0 0 1 3.239-.647c3.869 0 7.016 2.58 7.016 5.75 0 1.339-.57 2.64-1.606 3.668a.798.798 0 0 1-.562.23"/>
        <path fill="#42B549" d="M124.582 108.944H52.708a.798.798 0 1 1 0-1.598h71.874a.798.798 0 0 1 0 1.598M143.748 108.944h-12.777a.798.798 0 1 1 0-1.598h12.777a.8.8 0 0 1 0 1.598M98.533 76.241a.799.799 0 0 1-.54-.21l-11.15-10.264a.8.8 0 0 1-.048-1.13.804.804 0 0 1 1.128-.046l10.001 9.206L99.721 58.6c.052-.438.446-.767.887-.699a.797.797 0 0 1 .7.886l-1.982 16.75a.797.797 0 0 1-.793.704M112.1 76.238a.796.796 0 0 1-.793-.705l-2.013-17.072a.798.798 0 0 1 .7-.886c.437-.068.835.263.886.7l1.83 15.525 9.35-8.544a.8.8 0 0 1 1.078 1.178l-10.5 9.595a.799.799 0 0 1-.539.21M95.44 100.417a.796.796 0 0 1-.795-.88l1.46-14.363L80.18 68.6a.799.799 0 0 1 1.15-1.108l16.183 16.841a.8.8 0 0 1 .218.635l-1.497 14.731a.8.8 0 0 1-.794.718"/>
        <path fill="#42B549" d="M115.104 108.495a.8.8 0 0 1-.794-.718l-2.329-22.812a.802.802 0 0 1 .218-.634l2.21-2.304a.799.799 0 0 1 1.152 1.105l-1.954 2.04 2.292 22.443a.797.797 0 0 1-.795.88M117.726 80.518a.798.798 0 0 1-.576-1.351l11.231-11.76a.8.8 0 0 1 1.156 1.101l-11.235 11.764a.794.794 0 0 1-.576.246"/>
        <path fill="#42B549" d="M132.228 68.36c-8.277 0-15.362-5.624-17.23-13.674a.959.959 0 0 1 .717-1.15.966.966 0 0 1 1.15.717c1.665 7.177 7.983 12.191 15.363 12.191 8.696 0 15.771-7.075 15.771-15.772 0-6.584-4.15-12.533-10.326-14.805a.961.961 0 0 1-.569-1.232.962.962 0 0 1 1.23-.569c6.927 2.55 11.581 9.224 11.581 16.606 0 9.752-7.934 17.687-17.687 17.687"/>
        <path fill="#42B549" d="M138 35.92a.959.959 0 0 1-.758-1.543 13.53 13.53 0 0 0 2.834-8.332c0-7.535-6.131-13.666-13.667-13.666a13.62 13.62 0 0 0-7.237 2.07.96.96 0 0 1-1.016-1.625 15.54 15.54 0 0 1 8.252-2.361c8.592 0 15.584 6.989 15.584 15.582 0 3.474-1.117 6.759-3.232 9.502a.957.957 0 0 1-.76.373"/>
        <path fill="#42B549" d="M118.369 14.566a.959.959 0 0 1-.816-.453C112.827 6.476 104.65 1.915 95.68 1.915c-.491 0-.98.014-1.464.041-.547.044-.981-.374-1.011-.903a.958.958 0 0 1 .904-1.009c.52-.03 1.044-.044 1.57-.044 9.64 0 18.426 4.9 23.504 13.105a.956.956 0 0 1-.814 1.461M89.142 2.725a.957.957 0 0 1-.235-1.887A26.305 26.305 0 0 1 90.525.48a.964.964 0 0 1 1.12.763.957.957 0 0 1-.762 1.121c-.507.095-1.008.206-1.504.331a.97.97 0 0 1-.237.031M60.434 48.763a.96.96 0 0 1-.952-1.078c.138-1.103.377-2.193.71-3.24a18.399 18.399 0 0 1 8.603-10.486 27.618 27.618 0 0 1-.737-6.34A27.575 27.575 0 0 1 84.163 2.51a.957.957 0 1 1 .799 1.74A25.663 25.663 0 0 0 69.975 27.62c0 2.063.244 4.114.727 6.098l.15.392a.96.96 0 0 1-.477 1.186 16.466 16.466 0 0 0-8.357 9.73 16.333 16.333 0 0 0-.635 2.899.958.958 0 0 1-.949.838M77.626 68.262c-9.074 0-16.673-6.497-18.067-15.448a.956.956 0 0 1 .8-1.095.96.96 0 0 1 1.093.799c1.25 8.012 8.052 13.828 16.174 13.828 6.855 0 13.037-4.325 15.385-10.762a.95.95 0 0 1 1.109-.608c.093.02.192.057.276.105a18.943 18.943 0 0 0 9.44 2.517c4.203 0 8.183-1.347 11.508-3.894a.958.958 0 0 1 1.166 1.523c-3.665 2.805-8.047 4.286-12.674 4.286-3.284 0-6.522-.775-9.433-2.25-2.882 6.623-9.489 10.999-16.777 10.999M141.316 58.246a.798.798 0 0 1-.656-1.253 10.522 10.522 0 0 0 1.723-4.198.8.8 0 0 1 1.574.274 12.115 12.115 0 0 1-1.984 4.832.794.794 0 0 1-.657.345M143.168 49.742a.8.8 0 0 1-.786-.659 10.63 10.63 0 0 0-10.492-8.796.799.799 0 1 1 0-1.597c5.96 0 11.034 4.253 12.066 10.115a.8.8 0 0 1-.788.937"/>
    </g>
</svg>
